<svg width="22" height="22" viewBox="0 0 22 22" fill="none" xmlns="http://www.w3.org/2000/svg">
<mask id="path-1-inside-1_246_33" fill="white">
<path fill-rule="evenodd" clip-rule="evenodd" d="M18.3333 11.344C17.2336 12.4441 15.7141 13.1245 14.0357 13.1245C10.6796 13.1245 7.95884 10.4038 7.95884 7.04765C7.95884 5.36923 8.63929 3.84975 9.73937 2.75C5.81151 3.16157 2.75 6.48337 2.75 10.5202C2.75 14.8353 6.24805 18.3333 10.5631 18.3333C14.6 18.3333 17.9217 15.2719 18.3333 11.344Z"/>
</mask>
<path d="M18.3333 11.344L19.4729 11.4634L19.8101 8.24619L17.523 10.5339L18.3333 11.344ZM9.73937 2.75L10.5495 3.56035L12.8372 1.27329L9.61995 1.61041L9.73937 2.75ZM17.523 10.5339C16.6294 11.4278 15.398 11.9787 14.0357 11.9787V14.2704C16.0303 14.2704 17.8378 13.4604 19.1437 12.1541L17.523 10.5339ZM14.0357 11.9787C11.3124 11.9787 9.10468 9.77098 9.10468 7.04765H6.81301C6.81301 11.0366 10.0467 14.2704 14.0357 14.2704V11.9787ZM9.10468 7.04765C9.10468 5.68539 9.65556 4.45399 10.5495 3.56035L8.92926 1.93965C7.62301 3.24551 6.81301 5.05308 6.81301 7.04765H9.10468ZM3.89583 10.5202C3.89583 7.07612 6.50818 4.24068 9.85878 3.88959L9.61995 1.61041C5.11484 2.08247 1.60417 5.89061 1.60417 10.5202H3.89583ZM10.5631 17.1875C6.88088 17.1875 3.89583 14.2025 3.89583 10.5202H1.60417C1.60417 15.4681 5.61523 19.4792 10.5631 19.4792V17.1875ZM17.1937 11.2246C16.8426 14.5752 14.0072 17.1875 10.5631 17.1875V19.4792C15.1927 19.4792 19.0008 15.9685 19.4729 11.4634L17.1937 11.2246Z" fill="#222325" mask="url(#path-1-inside-1_246_33)"/>
</svg>
