<svg width="22" height="22" viewBox="0 0 22 22" fill="none" xmlns="http://www.w3.org/2000/svg">
<path fill-rule="evenodd" clip-rule="evenodd" d="M10.9999 5.02178C10.7798 5.02178 10.6013 4.84334 10.6013 4.62323V2.23192C10.6013 2.01181 10.7798 1.83337 10.9999 1.83337C11.22 1.83337 11.3984 2.01181 11.3984 2.23192V4.62323C11.3984 4.84334 11.22 5.02178 10.9999 5.02178ZM14.6666 11C14.6666 13.0251 13.025 14.6667 10.9999 14.6667C8.97487 14.6667 7.33324 13.0251 7.33324 11C7.33324 8.97499 8.97487 7.33336 10.9999 7.33336C13.025 7.33336 14.6666 8.97499 14.6666 11ZM7.95078 11C7.95078 12.684 9.31592 14.0492 10.9999 14.0492C12.6839 14.0492 14.049 12.684 14.049 11C14.049 9.31604 12.6839 7.9509 10.9999 7.9509C9.31592 7.9509 7.95078 9.31604 7.95078 11ZM10.6013 19.7681C10.6013 19.9883 10.7798 20.1667 10.9999 20.1667C11.22 20.1667 11.3984 19.9883 11.3984 19.7681V17.3768C11.3984 17.1567 11.22 16.9783 10.9999 16.9783C10.7798 16.9783 10.6013 17.1567 10.6013 17.3768V19.7681ZM19.768 11.3986C19.9881 11.3986 20.1666 11.2202 20.1666 11.0001C20.1666 10.7799 19.9881 10.6015 19.768 10.6015H17.3767C17.1566 10.6015 16.9782 10.7799 16.9782 11.0001C16.9782 11.2202 17.1566 11.3986 17.3767 11.3986H19.768ZM5.02166 11.0001C5.02166 11.2202 4.84322 11.3986 4.62311 11.3986H2.2318C2.01169 11.3986 1.83325 11.2202 1.83325 11.0001C1.83325 10.7799 2.01169 10.6015 2.2318 10.6015H4.62311C4.84322 10.6015 5.02166 10.7799 5.02166 11.0001ZM16.9181 17.4819C17.0738 17.6375 17.3261 17.6375 17.4818 17.4819C17.6374 17.3262 17.6374 17.0739 17.4818 16.9182L15.7909 15.2273C15.6352 15.0717 15.3829 15.0717 15.2272 15.2273C15.0716 15.383 15.0716 15.6353 15.2272 15.791L16.9181 17.4819ZM6.77269 6.77281C6.61705 6.92845 6.3647 6.92845 6.20906 6.77281L4.51815 5.0819C4.36251 4.92626 4.36251 4.67391 4.51815 4.51827C4.67379 4.36262 4.92614 4.36262 5.08179 4.51827L6.77269 6.20917C6.92834 6.36482 6.92834 6.61717 6.77269 6.77281ZM16.9181 4.51819C17.0738 4.36254 17.3261 4.36254 17.4818 4.51819C17.6374 4.67383 17.6374 4.92618 17.4818 5.08182L15.7909 6.77273C15.6352 6.92838 15.3829 6.92838 15.2272 6.77273C15.0716 6.61709 15.0716 6.36474 15.2272 6.2091L16.9181 4.51819ZM6.77269 15.2273C6.61705 15.0716 6.3647 15.0716 6.20906 15.2273L4.51815 16.9182C4.36251 17.0738 4.36251 17.3262 4.51815 17.4818C4.67379 17.6374 4.92614 17.6374 5.08179 17.4818L6.77269 15.7909C6.92834 15.6352 6.92834 15.3829 6.77269 15.2273Z" fill="white"/>
<path d="M1.83325 11.0001L2.06242 11.0001L1.83325 11.0001ZM15.2272 15.2273L15.0652 15.0653L15.0652 15.0653L15.2272 15.2273ZM4.51815 4.51827L4.35611 4.35622L4.3561 4.35622L4.51815 4.51827ZM5.08179 4.51827L5.24383 4.35622L5.24383 4.35622L5.08179 4.51827ZM6.77269 6.20917L6.61065 6.37122L6.61065 6.37122L6.77269 6.20917ZM17.4818 4.51819L17.6438 4.35614L17.6438 4.35614L17.4818 4.51819ZM16.9181 4.51819L16.7561 4.35614L16.7561 4.35614L16.9181 4.51819ZM17.4818 5.08182L17.3197 4.91978L17.3197 4.91978L17.4818 5.08182ZM15.7909 6.77273L15.6288 6.61069L15.6288 6.61069L15.7909 6.77273ZM15.2272 6.77273L15.0652 6.93478L15.0652 6.93478L15.2272 6.77273ZM15.2272 6.2091L15.3893 6.37114L15.3893 6.37114L15.2272 6.2091ZM6.20906 15.2273L6.3711 15.3893L6.3711 15.3893L6.20906 15.2273ZM6.77269 15.2273L6.61065 15.3893L6.61065 15.3893L6.77269 15.2273ZM4.51815 16.9182L4.6802 17.0802L4.6802 17.0802L4.51815 16.9182ZM4.51815 17.4818L4.3561 17.6438L4.35611 17.6438L4.51815 17.4818ZM5.08179 17.4818L5.24383 17.6438L5.24383 17.6438L5.08179 17.4818ZM6.77269 15.7909L6.93474 15.9529L6.93474 15.9529L6.77269 15.7909ZM10.3722 4.62323C10.3722 4.96991 10.6532 5.25095 10.9999 5.25095V4.79261C10.9063 4.79261 10.8305 4.71678 10.8305 4.62323H10.3722ZM10.3722 2.23192V4.62323H10.8305V2.23192H10.3722ZM10.9999 1.60421C10.6532 1.60421 10.3722 1.88525 10.3722 2.23192H10.8305C10.8305 2.13838 10.9063 2.06254 10.9999 2.06254V1.60421ZM11.6276 2.23192C11.6276 1.88525 11.3466 1.60421 10.9999 1.60421V2.06254C11.0934 2.06254 11.1693 2.13838 11.1693 2.23192H11.6276ZM11.6276 4.62323V2.23192H11.1693V4.62323H11.6276ZM10.9999 5.25095C11.3466 5.25095 11.6276 4.96991 11.6276 4.62323H11.1693C11.1693 4.71678 11.0934 4.79261 10.9999 4.79261V5.25095ZM10.9999 14.8959C13.1515 14.8959 14.8957 13.1516 14.8957 11H14.4374C14.4374 12.8985 12.8984 14.4375 10.9999 14.4375V14.8959ZM7.10408 11C7.10408 13.1516 8.8483 14.8959 10.9999 14.8959V14.4375C9.10143 14.4375 7.56241 12.8985 7.56241 11H7.10408ZM10.9999 7.1042C8.8483 7.1042 7.10408 8.84842 7.10408 11H7.56241C7.56241 9.10155 9.10143 7.56253 10.9999 7.56253V7.1042ZM14.8957 11C14.8957 8.84842 13.1515 7.1042 10.9999 7.1042V7.56253C12.8984 7.56253 14.4374 9.10155 14.4374 11H14.8957ZM10.9999 13.82C9.44248 13.82 8.17994 12.5575 8.17994 11H7.72161C7.72161 12.8106 9.18935 14.2783 10.9999 14.2783V13.82ZM13.8199 11C13.8199 12.5575 12.5573 13.82 10.9999 13.82V14.2783C12.8105 14.2783 14.2782 12.8106 14.2782 11H13.8199ZM10.9999 8.18006C12.5573 8.18006 13.8199 9.44261 13.8199 11H14.2782C14.2782 9.18948 12.8105 7.72173 10.9999 7.72173V8.18006ZM8.17994 11C8.17994 9.44261 9.44248 8.18006 10.9999 8.18006V7.72173C9.18935 7.72173 7.72161 9.18948 7.72161 11H8.17994ZM10.9999 19.9375C10.9063 19.9375 10.8305 19.8617 10.8305 19.7681H10.3722C10.3722 20.1148 10.6532 20.3959 10.9999 20.3959V19.9375ZM11.1693 19.7681C11.1693 19.8617 11.0934 19.9375 10.9999 19.9375V20.3959C11.3466 20.3959 11.6276 20.1148 11.6276 19.7681H11.1693ZM11.1693 17.3768V19.7681H11.6276V17.3768H11.1693ZM10.9999 17.2075C11.0934 17.2075 11.1693 17.2833 11.1693 17.3768H11.6276C11.6276 17.0302 11.3466 16.7491 10.9999 16.7491V17.2075ZM10.8305 17.3768C10.8305 17.2833 10.9063 17.2075 10.9999 17.2075V16.7491C10.6532 16.7491 10.3722 17.0302 10.3722 17.3768H10.8305ZM10.8305 19.7681V17.3768H10.3722V19.7681H10.8305ZM19.9374 11.0001C19.9374 11.0936 19.8616 11.1694 19.768 11.1694V11.6278C20.1147 11.6278 20.3957 11.3467 20.3957 11.0001H19.9374ZM19.768 10.8307C19.8616 10.8307 19.9374 10.9065 19.9374 11.0001H20.3957C20.3957 10.6534 20.1147 10.3723 19.768 10.3723V10.8307ZM17.3767 10.8307H19.768V10.3723H17.3767V10.8307ZM17.2073 11.0001C17.2073 10.9065 17.2832 10.8307 17.3767 10.8307V10.3723C17.03 10.3723 16.749 10.6534 16.749 11.0001H17.2073ZM17.3767 11.1694C17.2832 11.1694 17.2073 11.0936 17.2073 11.0001H16.749C16.749 11.3467 17.03 11.6278 17.3767 11.6278V11.1694ZM19.768 11.1694H17.3767V11.6278H19.768V11.1694ZM4.62311 11.6278C4.96979 11.6278 5.25082 11.3467 5.25082 11.0001H4.79249C4.79249 11.0936 4.71666 11.1694 4.62311 11.1694V11.6278ZM2.2318 11.6278H4.62311V11.1694H2.2318V11.6278ZM1.60409 11.0001C1.60409 11.3467 1.88512 11.6278 2.2318 11.6278V11.1694C2.13825 11.1694 2.06242 11.0936 2.06242 11.0001L1.60409 11.0001ZM2.2318 10.3723C1.88512 10.3723 1.60409 10.6534 1.60409 11.0001L2.06242 11.0001C2.06242 10.9065 2.13825 10.8307 2.2318 10.8307V10.3723ZM4.62311 10.3723H2.2318V10.8307H4.62311V10.3723ZM5.25082 11.0001C5.25082 10.6534 4.96979 10.3723 4.62311 10.3723V10.8307C4.71666 10.8307 4.79249 10.9065 4.79249 11.0001H5.25082ZM17.3197 17.3198C17.2536 17.386 17.1463 17.386 17.0802 17.3198L16.7561 17.6439C17.0012 17.8891 17.3987 17.8891 17.6438 17.6439L17.3197 17.3198ZM17.3197 17.0803C17.3859 17.1464 17.3859 17.2537 17.3197 17.3198L17.6438 17.6439C17.8889 17.3988 17.8889 17.0013 17.6438 16.7562L17.3197 17.0803ZM15.6288 15.3894L17.3197 17.0803L17.6438 16.7562L15.9529 15.0653L15.6288 15.3894ZM15.3893 15.3894C15.4554 15.3232 15.5627 15.3232 15.6288 15.3894L15.9529 15.0653C15.7078 14.8201 15.3103 14.8201 15.0652 15.0653L15.3893 15.3894ZM15.3893 15.6289C15.3231 15.5628 15.3231 15.4555 15.3893 15.3894L15.0652 15.0653C14.82 15.3104 14.82 15.7079 15.0652 15.953L15.3893 15.6289ZM17.0802 17.3198L15.3893 15.6289L15.0652 15.953L16.7561 17.6439L17.0802 17.3198ZM6.04701 6.93485C6.29215 7.17999 6.6896 7.17999 6.93474 6.93485L6.61065 6.61076C6.5445 6.67691 6.43725 6.67691 6.3711 6.61076L6.04701 6.93485ZM4.35611 5.24395L6.04701 6.93485L6.3711 6.61076L4.6802 4.91986L4.35611 5.24395ZM4.3561 4.35622C4.11097 4.60136 4.11097 4.99881 4.35611 5.24395L4.6802 4.91986C4.61405 4.85371 4.61405 4.74646 4.6802 4.68031L4.3561 4.35622ZM5.24383 4.35622C4.99869 4.11108 4.60124 4.11108 4.35611 4.35622L4.6802 4.68031C4.74634 4.61416 4.85359 4.61416 4.91974 4.68031L5.24383 4.35622ZM6.93474 6.04713L5.24383 4.35622L4.91974 4.68031L6.61065 6.37122L6.93474 6.04713ZM6.93474 6.93485C7.17988 6.68972 7.17988 6.29227 6.93474 6.04713L6.61065 6.37122C6.6768 6.43737 6.6768 6.54462 6.61065 6.61076L6.93474 6.93485ZM17.6438 4.35614C17.3987 4.111 17.0012 4.111 16.7561 4.35614L17.0802 4.68023C17.1463 4.61408 17.2536 4.61408 17.3197 4.68023L17.6438 4.35614ZM17.6438 5.24387C17.8889 4.99873 17.8889 4.60128 17.6438 4.35614L17.3197 4.68023C17.3859 4.74638 17.3859 4.85363 17.3197 4.91978L17.6438 5.24387ZM15.9529 6.93478L17.6438 5.24387L17.3197 4.91978L15.6288 6.61069L15.9529 6.93478ZM15.0652 6.93478C15.3103 7.17992 15.7078 7.17992 15.9529 6.93478L15.6288 6.61069C15.5627 6.67683 15.4554 6.67683 15.3893 6.61069L15.0652 6.93478ZM15.0652 6.04705C14.82 6.29219 14.82 6.68964 15.0652 6.93478L15.3893 6.61069C15.3231 6.54454 15.3231 6.43729 15.3893 6.37114L15.0652 6.04705ZM16.7561 4.35614L15.0652 6.04705L15.3893 6.37114L17.0802 4.68023L16.7561 4.35614ZM6.3711 15.3893C6.43725 15.3231 6.5445 15.3231 6.61065 15.3893L6.93474 15.0652C6.6896 14.8201 6.29215 14.8201 6.04701 15.0652L6.3711 15.3893ZM4.6802 17.0802L6.3711 15.3893L6.04701 15.0652L4.35611 16.7561L4.6802 17.0802ZM4.6802 17.3198C4.61405 17.2536 4.61405 17.1464 4.6802 17.0802L4.35611 16.7561C4.11097 17.0013 4.11097 17.3987 4.3561 17.6438L4.6802 17.3198ZM4.91974 17.3198C4.85359 17.3859 4.74634 17.3859 4.6802 17.3198L4.35611 17.6438C4.60124 17.889 4.99869 17.889 5.24383 17.6438L4.91974 17.3198ZM6.61065 15.6288L4.91974 17.3198L5.24383 17.6438L6.93474 15.9529L6.61065 15.6288ZM6.61065 15.3893C6.6768 15.4554 6.6768 15.5627 6.61065 15.6288L6.93474 15.9529C7.17988 15.7078 7.17988 15.3103 6.93474 15.0652L6.61065 15.3893Z" fill="white"/>
</svg>
